<svg width="16" height="16" viewBox="0 0 16 16" fill="none" xmlns="http://www.w3.org/2000/svg">
<g clip-path="url(#clip0_28031_25768)">
<path d="M11.1969 12.7998V15.1998H0.796875V12.7998H11.1969Z" fill="white"/>
<path opacity="0.5" d="M9.85989 7.59977C4.51727 11.4907 8.79687 14.3998 10.3969 7.59983C11.1969 7.19354 13.4287 7.30961 13.4287 7.30961C10.1978 8.99898 9.52202 11.5119 11.1969 12.7998C9.13174 14.3733 6.58674 14.2359 6.6152 14.2583C5.0439 14.5986 0.796875 12.7998 0.796875 12.7998C4.39687 11.9998 8.12188 8.03292 7.32188 4.83254C8.92188 4.42627 8.95828 7.35571 9.85989 7.59977Z" fill="white"/>
<path d="M2.70312 12.3684C4.14063 11.9434 6.51211 10.4053 7.79387 6.80078C7.5658 8.28689 5.79855 11.057 5.35053 11.4467C4.70396 12.0092 4.10883 12.3684 2.70312 12.3684Z" fill="white"/>
<path d="M6.9267 10.5362C6.62915 12.7287 8.79211 12.3682 10.0312 9.84473C9.23271 12.6085 5.86811 13.4096 6.9267 10.5362Z" fill="white"/>
<circle cx="11.2031" cy="4" r="4" fill="white"/>
</g>
<defs>
<clipPath id="clip0_28031_25768">
<rect width="16" height="16" fill="white"/>
</clipPath>
</defs>
</svg>
