<svg width="20" height="20" viewBox="0 0 20 20" fill="none" xmlns="http://www.w3.org/2000/svg">
<g clip-path="url(#clip0_27964_25894)">
<path opacity="0.5" fill-rule="evenodd" clip-rule="evenodd" d="M15.6298 7.0001C15.6298 7.26531 15.5245 7.51967 15.3369 7.7072C15.1494 7.89474 14.895 8.0001 14.6298 8.0001H9.99982V19.0001C9.99982 19.2653 9.89446 19.5197 9.70693 19.7072C9.51939 19.8947 9.26504 20.0001 8.99982 20.0001C8.7346 20.0001 8.48025 19.8947 8.29271 19.7072C8.10518 19.5197 7.99982 19.2653 7.99982 19.0001V14.0001H5.99982V19.0001C5.99982 19.2653 5.89446 19.5197 5.70693 19.7072C5.51939 19.8947 5.26504 20.0001 4.99982 20.0001C4.7346 20.0001 4.48025 19.8947 4.29271 19.7072C4.10518 19.5197 3.99982 19.2653 3.99982 19.0001V9.1301L1.70982 11.4301C1.52019 11.6184 1.26352 11.7237 0.996285 11.7227C0.729046 11.7218 0.473125 11.6147 0.284821 11.4251C0.0965172 11.2355 -0.00874397 10.9788 -0.00780629 10.7116C-0.00686861 10.4443 0.100191 10.1884 0.289821 10.0001L3.99982 6.2901C4.116 6.18595 4.25215 6.10653 4.4 6.05667C4.54785 6.00681 4.7043 5.98757 4.85982 6.0001H14.6298C14.895 6.0001 15.1494 6.10545 15.3369 6.29299C15.5245 6.48053 15.6298 6.73488 15.6298 7.0001V7.0001ZM6.99982 5.3801C7.47096 5.38208 7.93209 5.24418 8.32479 4.98387C8.71749 4.72355 9.0241 4.35254 9.20577 3.91783C9.38744 3.48312 9.436 3.00427 9.3453 2.54194C9.2546 2.07961 9.02872 1.6546 8.69627 1.32075C8.36383 0.986901 7.93977 0.759233 7.47783 0.666586C7.01588 0.57394 6.53683 0.620484 6.10136 0.800323C5.66589 0.980162 5.29359 1.2852 5.03163 1.67681C4.76967 2.06841 4.62982 2.52895 4.62982 3.0001C4.63243 3.62878 4.88265 4.23112 5.32626 4.6766C5.76987 5.12209 6.37115 5.37484 6.99982 5.3801V5.3801Z" fill="white"/>
<path d="M11 15.1295L12.29 13.8495L13.29 14.8495L12 16.1595L11 15.1295ZM16.4 12.8195L17.04 13.4595C18.32 14.7495 18.54 15.8195 17.68 16.6695C16.82 17.5195 15.75 17.3195 14.47 16.0295L13.83 15.3895L12.54 16.6695L13.18 17.3195C15.11 19.2395 17.33 19.5895 18.97 17.9595C20.61 16.3295 20.25 14.0995 18.32 12.1695L17.68 11.5295L16.4 12.8195ZM17.17 11.0195L16.17 10.0195L14.89 11.3095L15.89 12.3095L17.17 11.0195Z" fill="white"/>
</g>
<defs>
<clipPath id="clip0_27964_25894">
<rect width="20" height="20" fill="white"/>
</clipPath>
</defs>
</svg>
