<svg width="20" height="20" viewBox="0 0 20 20" fill="none" xmlns="http://www.w3.org/2000/svg">
<g clip-path="url(#clip0_27956_25855)">
<path fill-rule="evenodd" clip-rule="evenodd" d="M5.41602 2.66444C5.05084 3.59768 4.81453 4.91973 4.81453 6.40426C4.81453 7.88879 5.05084 9.21085 5.41602 10.1441C5.59919 10.6122 5.8054 10.9583 6.00977 11.1792C6.21364 11.3996 6.37965 11.4598 6.49971 11.4598C6.61977 11.4598 6.78578 11.3996 6.98965 11.1792C7.19403 10.9583 7.40023 10.6122 7.5834 10.1441C7.94858 9.21085 8.1849 7.88879 8.1849 6.40426C8.1849 4.91973 7.94858 3.59768 7.5834 2.66444C7.40023 2.19633 7.19403 1.85024 6.98965 1.62933C6.78578 1.40897 6.61977 1.34871 6.49971 1.34871C6.37965 1.34871 6.21364 1.40897 6.00977 1.62933C5.8054 1.85024 5.59919 2.19633 5.41602 2.66444ZM5.30292 0.975377C5.61748 0.63536 6.02146 0.385742 6.49971 0.385742C6.97796 0.385742 7.38194 0.63536 7.69651 0.975377C8.01056 1.31484 8.27124 1.77963 8.48015 2.31353C8.89915 3.38431 9.14786 4.83077 9.14786 6.40426C9.14786 7.97775 8.89915 9.42422 8.48015 10.495C8.27124 11.0289 8.01056 11.4937 7.69651 11.8331C7.38194 12.1732 6.97796 12.4228 6.49971 12.4228C6.02146 12.4228 5.61748 12.1732 5.30292 11.8331C4.98886 11.4937 4.72819 11.0289 4.51927 10.495C4.10027 9.42422 3.85156 7.97775 3.85156 6.40426C3.85156 4.83077 4.10027 3.38431 4.51927 2.31353C4.72819 1.77963 4.98886 1.31484 5.30292 0.975377Z" fill="white"/>
<path fill-rule="evenodd" clip-rule="evenodd" d="M0.1875 6.51859C0.1875 6.25268 0.403067 6.03711 0.668982 6.03711H11V7.00007H0.668982C0.403067 7.00007 0.1875 6.78451 0.1875 6.51859Z" fill="white"/>
<path d="M6.45215 0C8.81183 0.000104379 10.8658 1.23689 12.0176 3.08008C11.7015 3.18744 11.4317 3.39612 11.25 3.66895C10.2788 2.05469 8.50237 0.962997 6.45215 0.962891C3.35637 0.962891 0.962891 3.45668 0.962891 6.5C0.962891 9.54332 3.35637 12.0371 6.45215 12.0371C6.99035 12.0371 7.50907 11.9595 8 11.8193V12.8154C7.5041 12.9347 6.98615 13 6.45215 13C2.80719 13 0 10.0576 0 6.5C4.84796e-08 2.94237 2.80719 0 6.45215 0Z" fill="white"/>
<path d="M16.5 11.29V14.71L13.5 16.4238L10.5 14.71V11.29L13.5 9.57617L16.5 11.29Z" stroke="white" stroke-linecap="round" stroke-linejoin="round"/>
<path d="M13.5 5V9.5" stroke="white" stroke-miterlimit="10" stroke-linecap="round"/>
<path d="M11.5 15.5L8 19" stroke="white" stroke-miterlimit="10" stroke-linecap="round"/>
<path d="M15.5 15.5L19 19" stroke="white" stroke-miterlimit="10" stroke-linecap="round"/>
<path opacity="0.5" d="M10.5 11L13.5 13L16.5 11L17 11.5L14 13.5V16.5H13V13.5L10 11.5L10.5 11Z" fill="white"/>
</g>
<defs>
<clipPath id="clip0_27956_25855">
<rect width="20" height="20" fill="white"/>
</clipPath>
</defs>
</svg>
