<svg width="20" height="20" viewBox="0 0 20 20" fill="none" xmlns="http://www.w3.org/2000/svg">
<g clip-path="url(#clip0_27964_25897)">
<circle cx="15.5" cy="16.5" r="3.5" fill="white"/>
<path d="M16 11V12H15V11H16ZM16 9V10H15V9H16ZM17 6V8H14V6H17Z" fill="white"/>
<g opacity="0.5">
<path d="M4.85938 6.00049H13V8.00049H10V19.0005C9.99992 19.2656 9.8945 19.5201 9.70704 19.7075C9.51955 19.895 9.26513 20.0004 9.00001 20.0005C8.7349 20.0005 8.48049 19.8949 8.29297 19.7075C8.10551 19.5201 8.00009 19.2656 8.00001 19.0005V14.0005H6.00001V19.0005C5.99992 19.2656 5.8945 19.5201 5.70704 19.7075C5.51955 19.895 5.26513 20.0004 5.00001 20.0005C4.7349 20.0005 4.48049 19.8949 4.29297 19.7075C4.10551 19.5201 4.00009 19.2656 4.00001 19.0005V9.13037L1.70997 11.4302C1.52034 11.6185 1.26334 11.7241 0.9961 11.7231C0.729039 11.7222 0.473397 11.6147 0.285162 11.4253C0.0968587 11.2357 -0.00874399 10.9787 -0.00780631 10.7114C-0.00681278 10.4443 0.100501 10.1887 0.290045 10.0005L4.00001 6.29053C4.11618 6.18638 4.25255 6.10698 4.4004 6.05713C4.54804 6.00737 4.70408 5.98803 4.85938 6.00049Z" fill="white"/>
<path d="M6.10157 0.800293C6.53689 0.620563 7.01577 0.573958 7.47755 0.666504C7.93948 0.759149 8.36385 0.986958 8.69629 1.3208C9.02874 1.65465 9.25501 2.08015 9.34571 2.54248C9.43624 3.00449 9.38751 3.48305 9.20606 3.91748C9.02443 4.35208 8.71776 4.72359 8.3252 4.98389C7.93254 5.24417 7.47109 5.38232 7.00001 5.38037C6.37134 5.37512 5.76979 5.12175 5.32618 4.67627C4.8828 4.23088 4.63258 3.62894 4.62989 3.00049C4.62989 2.52952 4.76948 2.06876 5.03126 1.67725C5.29322 1.28564 5.6661 0.980132 6.10157 0.800293Z" fill="white"/>
</g>
</g>
<defs>
<clipPath id="clip0_27964_25897">
<rect width="20" height="20" fill="white"/>
</clipPath>
</defs>
</svg>
