<svg width="15" height="14" viewBox="0 0 15 14" fill="none" xmlns="http://www.w3.org/2000/svg">
<path opacity="0.5" d="M14.1508 0.699997H5.05078V2.1H14.1508V0.699997Z" fill="#C0C0C0"/>
<path d="M3.65078 0.699997H1.55078V2.8H3.65078V0.699997Z" fill="#C0C0C0"/>
<path opacity="0.5" d="M3.65078 4.2H1.55078V6.3H3.65078V4.2Z" fill="#C0C0C0"/>
<path opacity="0.5" d="M7.85078 7.7H5.05078V9.1H7.85078V7.7Z" fill="white"/>
<path opacity="0.5" d="M7.85078 4.2H5.05078V5.6H7.85078V4.2Z" fill="white"/>
<path opacity="0.5" fill-rule="evenodd" clip-rule="evenodd" d="M14.1503 5.6H12.7503L11.0703 4.2H14.1503V5.6Z" fill="white"/>
<path d="M3.65078 7.7H1.55078V9.8H3.65078V7.7Z" fill="white"/>
<path opacity="0.5" d="M7.85078 11.2H5.05078V12.6H7.85078V11.2Z" fill="white"/>
<path d="M3.65078 11.2H1.55078V13.3H3.65078V11.2Z" fill="white"/>
<path d="M14.851 9.66L9.25098 4.9L9.32098 12.25L10.931 10.01L12.541 13.3L13.731 12.74L12.121 9.45L14.851 9.66Z" fill="white"/>
</svg>
