<svg width="20" height="20" viewBox="0 0 20 20" fill="none" xmlns="http://www.w3.org/2000/svg">
<g clip-path="url(#clip0_25722_24988)">
<path d="M15.625 12.5C18.0412 12.5 20 10.5412 20 8.125C20 5.70875 18.0412 3.75 15.625 3.75C13.2088 3.75 11.25 5.70875 11.25 8.125C11.25 10.5412 13.2088 12.5 15.625 12.5Z" fill="white"/>
<path opacity="0.5" d="M0 1.5C0.884937 1.5 1.61095 1.98402 2.16406 2.55762C2.72361 3.13791 3.21634 3.92058 3.65332 4.78223C4.53039 6.51167 5.28557 8.77443 5.90039 10.9814C6.35314 12.6067 6.73644 14.2292 7.04102 15.6309C7.21895 15.1519 7.42059 14.6533 7.65039 14.1484C8.24726 12.8372 9.05406 11.4278 10.127 10.1982C10.3806 10.8707 10.7544 11.4838 11.2217 12.0127C10.5209 12.9168 9.94304 13.939 9.4707 14.9766C8.86117 16.3156 8.45753 17.6172 8.20605 18.5869C8.08068 19.0704 7.99328 19.4681 7.93848 19.7422C7.91114 19.8789 7.89219 19.9847 7.87988 20.0547C7.87373 20.0897 7.86893 20.1163 7.86621 20.1328C7.86494 20.1405 7.86382 20.146 7.86328 20.1494V20.1533C7.86321 20.1533 7.86252 20.1533 7.85645 20.1523L5.88867 20.1621L5.8877 20.1602C5.88769 20.1601 5.88734 20.1551 5.88672 20.1514C5.88542 20.1435 5.88354 20.1312 5.88086 20.1152C5.8755 20.0833 5.86722 20.0354 5.85645 19.9727C5.83486 19.8471 5.80242 19.662 5.75977 19.4258C5.67439 18.9531 5.54724 18.2763 5.38281 17.4639C5.05356 15.837 4.64835 14.0461 4.05469 11.5459C3.51405 9.26903 3.07845 7.90799 2.23145 5.67285C1.84065 4.64167 1.32418 3.90014 0.960938 3.52344C0.595232 3.14435 0.0393033 2.98101 0.0273438 2.97754L0 1.5Z" fill="white"/>
</g>
<defs>
<clipPath id="clip0_25722_24988">
<rect width="20" height="20" fill="white"/>
</clipPath>
</defs>
</svg>
