<svg width="20" height="20" viewBox="0 0 20 20" fill="none" xmlns="http://www.w3.org/2000/svg">
<path opacity="0.5" d="M12 4V3H8C7.4 3 7 3.5 7 4V7H4V8H7V10L8 9.35V4.6C8 4.3 8.30001 4 8.60001 4H12Z" fill="white"/>
<path d="M16 2V4C16 4.6 15.6 5 15 5H12C11.4 5 11 4.6 11 4V2C11 1.4 11.4 1 12 1H15C15.6 1 16 1.4 16 2Z" fill="white"/>
<path d="M5 6V8C5 8.6 4.6 9 4 9H1C0.4 9 0 8.6 0 8V6C0 5.4 0.4 5 1 5H4C4.6 5 5 5.4 5 6Z" fill="white"/>
<path d="M19.0654 12.8818C18.7151 12.4673 18.2017 11.9153 17.5488 11.3613C17.4952 11.3158 17.4396 11.2713 17.3838 11.2256L16.3184 12.291C16.4072 12.3616 16.4937 12.4332 16.5781 12.5049C17.1538 12.9933 17.6094 13.4832 17.9199 13.8506C17.9697 13.9095 18.0146 13.9658 18.0566 14.0176C18.0145 14.0695 17.9698 14.1265 17.9199 14.1855C17.6094 14.5529 17.1538 15.0428 16.5781 15.5312C15.4144 16.5185 13.8326 17.4385 12 17.4385C11.7371 17.4385 11.4796 17.4172 11.2275 17.3818L9.9668 18.6426C10.6008 18.8276 11.2805 18.9385 12 18.9385C14.3374 18.9385 16.2551 17.7725 17.5488 16.6748C18.2019 16.1207 18.715 15.5679 19.0654 15.1533C19.241 14.9456 19.3774 14.7718 19.4707 14.6475C19.5173 14.5854 19.553 14.5353 19.5781 14.5L19.9062 14.0176L19.6211 13.5967L19.4707 13.3887C19.3774 13.2643 19.241 13.0896 19.0654 12.8818Z" fill="white"/>
<path d="M14.0039 9.38477C13.3783 9.20492 12.7084 9.09766 12 9.09766C9.66254 9.09766 7.74489 10.2636 6.45117 11.3613C5.79828 11.9153 5.28494 12.4673 4.93457 12.8818C4.75896 13.0896 4.62259 13.2643 4.5293 13.3887C4.43601 13.5131 4.09375 14.0176 4.09375 14.0176C4.09375 14.0176 4.26411 14.2771 4.37891 14.4395C4.43677 14.5213 4.43603 14.5231 4.5293 14.6475C4.62256 14.7718 4.75904 14.9456 4.93457 15.1533C5.28496 15.5679 5.79814 16.1207 6.45117 16.6748C6.49811 16.7146 6.54713 16.753 6.5957 16.793L7.66016 15.7285C7.57874 15.6634 7.49961 15.5972 7.42188 15.5312C6.84625 15.0428 6.39059 14.5529 6.08008 14.1855C6.03002 14.1263 5.98459 14.0696 5.94238 14.0176C5.98449 13.9657 6.03017 13.9096 6.08008 13.8506C6.3906 13.4832 6.84618 12.9933 7.42188 12.5049C8.58559 11.5175 10.1673 10.5977 12 10.5977C12.2517 10.5977 12.4985 10.616 12.7402 10.6484L14.0039 9.38477Z" fill="white"/>
<path d="M16.4697 8.46967C16.7626 8.17678 17.2373 8.17678 17.5302 8.46967C17.8231 8.76256 17.8231 9.23732 17.5302 9.53022L7.53022 19.5302C7.23732 19.8231 6.76256 19.8231 6.46967 19.5302C6.17678 19.2373 6.17678 18.7626 6.46967 18.4697L16.4697 8.46967Z" fill="white"/>
</svg>
