<svg width="18" height="19" viewBox="0 0 18 19" fill="none" xmlns="http://www.w3.org/2000/svg">
<path d="M17.7569 2.33008C18.2429 1.09708 17.3788 0.530048 16.3168 0.890048C15.2548 1.25005 12.015 4.85007 12.015 4.85007C7.79404 3.68007 5.50806 5.90305 5.50806 5.90305L12.7081 13.1031C12.7081 13.1031 15.093 10.934 13.779 6.62304C13.815 6.65004 17.3339 3.38308 17.7569 2.33008Z" fill="#C0C0C0"/>
<path opacity="0.5" d="M6.8491 16.3969L0 9.49381C1.21785 9.17502 2.36552 8.63175 3.38401 7.89184C4.68001 6.82084 4.77004 6.50586 4.77004 6.50586L12.141 13.8679C12.141 13.8679 12.2579 13.9758 10.7009 15.3078C9.59201 16.1271 8.22279 16.5142 6.8491 16.3969V16.3969Z" fill="#C0C0C0"/>
<path opacity="0.5" d="M12.123 15.7754L11.259 17.1614L13.185 17.1884L13.365 16.5314L12.123 15.7754Z" fill="white"/>
<path opacity="0.5" d="M15.1379 16.2703L14.7959 17.1793L17.9999 17.2243L17.9189 15.6673L17.3969 15.6133L15.1379 16.2703Z" fill="white"/>
</svg>
