<svg width="20" height="20" viewBox="0 0 20 20" fill="none" xmlns="http://www.w3.org/2000/svg">
<path opacity="0.5" d="M12 4V3H8C7.4 3 7 3.5 7 4V7H4V8H7V13L8 11.5V4.6C8 4.3 8.30001 4 8.60001 4H12Z" fill="white"/>
<path d="M16 2V4C16 4.6 15.6 5 15 5H12C11.4 5 11 4.6 11 4V2C11 1.4 11.4 1 12 1H15C15.6 1 16 1.4 16 2Z" fill="white"/>
<path d="M5 6V8C5 8.6 4.6 9 4 9H1C0.4 9 0 8.6 0 8V6C0 5.4 0.4 5 1 5H4C4.6 5 5 5.4 5 6Z" fill="white"/>
<path d="M10.7882 10.7971C10.3277 11.2746 9.8983 11.7812 9.50277 12.3138C9.07598 12.8682 8.7043 13.4628 8.39301 14.0894C8.1146 14.6973 7.93957 15.3475 7.87513 16.013C7.82865 16.2944 7.84787 16.5827 7.93129 16.8554C8.01472 17.1282 8.16008 17.3779 8.35602 17.5851C8.58482 17.7186 8.84046 17.7994 9.10439 17.8218C9.36832 17.8442 9.63392 17.8076 9.88194 17.7146C10.4748 17.5479 11.0414 17.2989 11.5651 16.9748C12.6625 16.3043 13.6722 15.4997 14.5707 14.5795C15.4857 13.6788 16.287 12.6695 16.9566 11.5739C17.2807 11.0502 17.5298 10.4837 17.6965 9.89084C17.7888 9.64467 17.8259 9.38121 17.8051 9.11913C17.7843 8.85704 17.7062 8.60272 17.5762 8.37416C17.3699 8.17658 17.1205 8.02949 16.8477 7.94445C16.575 7.85941 16.2862 7.83871 16.0041 7.88399C15.3394 7.95286 14.69 8.12769 14.0805 8.40188C13.4559 8.71656 12.8615 9.08805 12.3049 9.51164C11.7723 9.90717 11.2657 10.3366 10.7882 10.7971ZM10.5755 10.5844C11.5552 9.56699 12.6654 8.68381 13.8771 7.95799C14.498 7.58092 15.1711 7.29738 15.8746 7.11645C16.2523 7.02242 16.6419 6.98497 17.0306 7.00543C17.4679 7.054 17.8821 7.22739 18.2236 7.50485C18.5572 7.82083 18.7945 8.22484 18.908 8.6701C18.9964 9.07688 19.0214 9.49488 18.9819 9.9093C18.8984 10.687 18.6892 11.446 18.3623 12.1565C17.734 13.5177 16.8663 14.755 15.8006 15.8095C15.2635 16.3247 14.6952 16.8065 14.099 17.2522C13.4805 17.6967 12.8245 18.0866 12.1384 18.4174C11.4306 18.7412 10.6747 18.9474 9.90043 19.0278C9.48611 19.0719 9.06734 19.0469 8.6612 18.9538C8.21661 18.8439 7.81246 18.6097 7.49596 18.2787C7.22092 17.9366 7.0507 17.5223 7.00582 17.0857C6.97775 16.6974 7.0121 16.3072 7.10755 15.9297C7.28848 15.2262 7.57204 14.5531 7.94911 13.9322C8.67153 12.7043 9.55483 11.5784 10.5755 10.5844Z" fill="white"/>
<path opacity="0.5" d="M13.6066 13.6232C15.0006 12.2291 15.6916 10.6598 15.1498 10.1181C14.6081 9.57637 13.0388 10.2673 11.6448 11.6614C10.2507 13.0554 9.55977 14.6247 10.1015 15.1664C10.6432 15.7082 12.2125 15.0172 13.6066 13.6232Z" fill="white"/>
</svg>
