<svg width="20" height="20" viewBox="0 0 20 20" fill="none" xmlns="http://www.w3.org/2000/svg">
<path opacity="0.5" d="M11 4V3H8C7.4 3 7 3.5 7 4V7H5V8H7V10L8 9.35V4.6C8 4.3 8.30001 4 8.60001 4H11Z" fill="white"/>
<path opacity="0.5" d="M16 2V4C16 4.6 15.6 5 15 5H12C11.4 5 11 4.6 11 4V2C11 1.4 11.4 1 12 1H15C15.6 1 16 1.4 16 2Z" fill="white"/>
<path opacity="0.5" d="M5 6V8C5 8.6 4.6 9 4 9H1C0.4 9 0 8.6 0 8V6C0 5.4 0.4 5 1 5H4C4.6 5 5 5.4 5 6Z" fill="white"/>
<rect x="6.5" y="9.5" width="12" height="9" rx="1.5" stroke="white" stroke-dasharray="4 3"/>
<rect x="8" y="11" width="9" height="6" rx="1" fill="white"/>
</svg>
