<svg width="14" height="14" viewBox="0 0 14 14" fill="none" xmlns="http://www.w3.org/2000/svg">
<path d="M7.75 12.25L7 13L6.25 12.25L6.95703 11.543L7 11.5859L7.04297 11.543L7.75 12.25ZM5.45703 10.043L4.75 10.75L3.25 9.25L3.95703 8.54297L5.45703 10.043ZM10.75 9.25L9.25 10.75L8.54297 10.043L10.043 8.54297L10.75 9.25ZM1.75 6.25L2.45703 6.95703L2.41406 7L2.45703 7.04297L1.75 7.75L1 7L1.75 6.25ZM13 7L12.25 7.75L11.543 7.04297L11.5859 7L11.543 6.95703L12.25 6.25L13 7ZM4.75 3.25L5.45703 3.95703L3.95703 5.45703L3.25 4.75L4.75 3.25ZM10.75 4.75L10.043 5.45703L8.54297 3.95703L9.25 3.25L10.75 4.75ZM7.75 1.75L7.04297 2.45703L7 2.41406L6.95703 2.45703L6.25 1.75L7 1L7.75 1.75Z" fill="white"/>
<path d="M8 6H10V8H8V10H6V8H4V6H6V4H8V6Z" fill="white"/>
</svg>
