<svg width="15" height="14" viewBox="0 0 15 14" fill="none" xmlns="http://www.w3.org/2000/svg">
<g clip-path="url(#clip0_2255_154426)">
<path opacity="0.5" fill-rule="evenodd" clip-rule="evenodd" d="M5.23259 4.2H1.55059C1.36493 4.2 1.18689 4.27375 1.05561 4.40502C0.924336 4.5363 0.850586 4.71435 0.850586 4.9C0.850586 5.08565 0.924336 5.2637 1.05561 5.39497C1.18689 5.52625 1.36493 5.6 1.55059 5.6H5.05059V13.3C5.05059 13.4856 5.12434 13.6637 5.25561 13.795C5.38689 13.9262 5.56493 14 5.75059 14C5.93624 14 6.11428 13.9262 6.24556 13.795C6.37684 13.6637 6.45059 13.4856 6.45059 13.3V9.8H7.85059V13.3C7.85059 13.4856 7.92434 13.6637 8.05561 13.795C8.18689 13.9262 8.36493 14 8.55059 14C8.73624 14 8.91428 13.9262 9.04556 13.795C9.17684 13.6637 9.25059 13.4856 9.25059 13.3V4.2H5.23259Z" fill="#C0C0C0"/>
<path opacity="0.5" d="M7.15021 3.75901C8.06645 3.75901 8.80921 3.01625 8.80921 2.10001C8.80921 1.18377 8.06645 0.44101 7.15021 0.44101C6.23397 0.44101 5.49121 1.18377 5.49121 2.10001C5.49121 3.01625 6.23397 3.75901 7.15021 3.75901Z" fill="#C0C0C0"/>
<path fill-rule="evenodd" clip-rule="evenodd" d="M12.751 4.2H9.25098V5.6H12.751C12.9366 5.6 13.1147 5.52625 13.246 5.39497C13.3772 5.2637 13.451 5.08565 13.451 4.9C13.451 4.71435 13.3772 4.5363 13.246 4.40502C13.1147 4.27375 12.9366 4.2 12.751 4.2Z" fill="#C0C0C0"/>
<path d="M14.8504 10.598L10.6504 7L10.7064 12.53L11.9314 10.836L13.1214 13.314L14.0034 12.887L12.8204 10.43L14.8504 10.598Z" fill="white"/>
</g>
<defs>
<clipPath id="clip0_2255_154426">
<rect width="14" height="14" fill="white" transform="translate(0.850586)"/>
</clipPath>
</defs>
</svg>
