<svg width="16" height="16" viewBox="0 0 16 16" fill="none" xmlns="http://www.w3.org/2000/svg">
<path d="M10.5769 10.2257C12.3733 8.42932 12.8481 5.99166 11.6375 4.78105C10.4269 3.57044 7.98924 4.04531 6.19285 5.8417C4.39645 7.6381 3.92158 10.0758 5.13219 11.2864C6.34281 12.497 8.78047 12.0221 10.5769 10.2257Z" fill="white"/>
<path opacity="0.5" d="M5.49995 6.79998L3.09995 4.39998L3.99995 3.49998L6.29995 5.79998C5.99995 6.19998 5.69995 6.49998 5.49995 6.79998ZM7.99995 4.59998L7.09995 1.09998L5.99995 1.59998L6.89995 5.29998C7.29995 4.99998 7.59995 4.79998 7.99995 4.59998ZM11.2 9.59998L14.9 10.5L15.3 9.29998L11.8 8.39998C11.6 8.89998 11.4 9.19998 11.2 9.59998ZM5.09995 7.49998L1.09995 6.49998L0.699951 7.69998L4.69995 8.69998C4.69995 8.19998 4.89995 7.89998 5.09995 7.49998ZM10.6 10.2C10.3 10.5 9.99995 10.8 9.59995 11L12 13.4L12.9 12.5L10.6 10.2ZM7.79995 11.8L8.79995 15.8L9.99995 15.4L8.99995 11.4C8.59995 11.6 8.19995 11.7 7.79995 11.8Z" fill="white"/>
</svg>
